# xmcd
# 
# Track frame offsets:
#     150
#     23882
#     44467
#     63660
#     90432
#     114150
#     136480
#     159147
#     187387
#     207465
#     229042
# 
# Disc length: 3397
# 
# Revision: 7
# Processed by: cddbd v1.5.2PL0 Copyright (c) Steve Scherf et al.
# Submitted via: fre:ac v1.0.27
# 
DISCID=940d430b
DTITLE=Ian Moore - Ian Moore
DYEAR=1993
DGENRE=Blues Rock
TTITLE0=Nothing
TTITLE1=Revelation
TTITLE2=Satisfied
TTITLE3=Blue Sky
TTITLE4=Not in Vain
TTITLE5=Harlem
TTITLE6=How Does It Feel
TTITLE7=Deliver Me
TTITLE8=How Long
TTITLE9=Please God
TTITLE10=Carry On
EXTD=YEAR: 1993 ID3G: 0
EXTT0=
EXTT1=
EXTT2=
EXTT3=
EXTT4=
EXTT5=
EXTT6=
EXTT7=
EXTT8=
EXTT9=
EXTT10=
PLAYORDER=
